<svg  viewBox="0 0 19 19" xmlns="http://www.w3.org/2000/svg">
<path fill-rule="evenodd" clip-rule="evenodd" d="M0.4067 6.57726C0 7.52326 0 8.59325 0 10.7332V12.1303C0 14.9583 0 16.3723 0.8787 17.2513C1.7364 18.1093 3.1044 18.1292 5.8 18.1303C5.8659 18.1303 5.9325 18.1303 6 18.1303H13C13.0675 18.1303 13.1341 18.1303 13.2 18.1303C15.8956 18.1292 17.2636 18.1093 18.1213 17.2513C19 16.3723 19 14.9583 19 12.1303V10.7332C19 8.59325 19 7.52326 18.5933 6.57726C18.5339 6.43926 18.4682 6.30425 18.3966 6.17226C17.9063 5.26625 17.0664 4.60326 15.3866 3.27726C12.7163 1.16925 11.3811 0.115253 9.8339 0.0112495C9.6115 -0.00374985 9.3885 -0.00374985 9.1661 0.0112495C7.6189 0.115253 6.2837 1.16925 3.6134 3.27726C1.9336 4.60326 1.0937 5.26625 0.603401 6.17226C0.531799 6.30425 0.466099 6.43926 0.4067 6.57726ZM13.2 18.1303C13.2 17.6443 13.1043 17.1633 12.9184 16.7143C12.7324 16.2652 12.4599 15.8573 12.1163 15.5132C11.7727 15.1702 11.3648 14.8973 10.9159 14.7112C10.467 14.5253 9.9859 14.4303 9.5 14.4303C9.0141 14.4303 8.533 14.5253 8.0841 14.7112C7.6352 14.8973 7.2273 15.1702 6.8837 15.5132C6.5401 15.8573 6.2676 16.2652 6.0816 16.7143C5.8957 17.1633 5.8 17.6443 5.8 18.1303H7.2C7.2 17.8283 7.2595 17.5293 7.3751 17.2502C7.4907 16.9713 7.6601 16.7173 7.8737 16.5033C8.0872 16.2903 8.3408 16.1203 8.6198 16.0053C8.8989 15.8893 9.198 15.8302 9.5 15.8302C9.802 15.8302 10.1011 15.8893 10.3802 16.0053C10.6592 16.1203 10.9128 16.2903 11.1263 16.5033C11.3399 16.7173 11.5093 16.9713 11.6249 17.2502C11.7405 17.5293 11.8 17.8283 11.8 18.1303H13.2Z"/>
</svg>
