<svg  viewBox="0 0 16 20" fill="none" xmlns="http://www.w3.org/2000/svg">
    <path d="M13 9H3C1.89543 9 1 9.89543 1 11V17C1 18.1046 1.89543 19 3 19H13C14.1046 19 15 18.1046 15 17V11C15 9.89543 14.1046 9 13 9Z" stroke="#64748B" stroke-width="1.5" stroke-linecap="round" stroke-linejoin="round"/>
    <path d="M8 15C8.55228 15 9 14.5523 9 14C9 13.4477 8.55228 13 8 13C7.44772 13 7 13.4477 7 14C7 14.5523 7.44772 15 8 15Z" stroke="#64748B" stroke-width="2" stroke-linecap="round" stroke-linejoin="round"/>
    <path d="M4 9V5C4 3.93913 4.42143 2.92172 5.17157 2.17157C5.92172 1.42143 6.93913 1 8 1C9.06087 1 10.0783 1.42143 10.8284 2.17157C11.5786 2.92172 12 3.93913 12 5V9" stroke="#64748B" stroke-width="1.5" stroke-linecap="round" stroke-linejoin="round"/>
</svg>
